<svg xmlns="http://www.w3.org/2000/svg" enable-background="new 0 0 512 512" viewBox="0 0 512 512" id="customer-service">
  <g>
    <g>
      <path fill="#5596fb" d="M143.5,203.5h31.37c4.143,0,7.5-3.357,7.5-7.5s-3.357-7.5-7.5-7.5H143.5
			c-4.136,0-7.5-3.364-7.5-7.5v-30c0-4.136,3.364-7.5,7.5-7.5h30c4.143,0,7.5-3.357,7.5-7.5s-3.357-7.5-7.5-7.5H151V121
			c0-57.897,47.103-105,105-105s105,47.103,105,105v7.5h-22.5c-4.143,0-7.5,3.357-7.5,7.5s3.357,7.5,7.5,7.5h30
			c4.136,0,7.5,3.364,7.5,7.5v30c0,4.136-3.364,7.5-7.5,7.5h-31.37c-4.143,0-7.5,3.357-7.5,7.5s3.357,7.5,7.5,7.5h16.37l7.25,5
			l7.75-5c12.406,0,22.5-10.094,22.5-22.5v-30c0-9.777-6.271-18.114-15-21.21V121C376,54.832,322.168,1,256,1S136,54.832,136,121
			v8.79c-8.729,3.096-15,11.433-15,21.21v30C121,193.406,131.094,203.5,143.5,203.5z"></path>
      <g>
        <path fill="#283954" d="M329.78 194.49c.7-3.42 3.73-5.99 7.35-5.99h8.56c.537-6.63.214-7.885.31-45h-7.5c-4.14 0-7.5-3.36-7.5-7.5v45C331 185.61 330.58 190.12 329.78 194.49zM256 31c-56.067 0-90 49.843-90 82.5v15h7.5c4.14 0 7.5 3.36 7.5 7.5v-15h48.96c19.29 0 36.98-8.78 48.54-23.53 11.56 14.75 29.25 23.53 48.54 23.53H331v15c0-4.14 3.36-7.5 7.5-7.5h7.5v-15C346 80.501 311.842 31 256 31zM327.04 106c-17.83 0-33.86-9.91-41.83-25.85-1.27-2.54-3.87-4.15-6.71-4.15s-5.44 1.61-6.71 4.15c-7.97 15.94-24 25.85-41.83 25.85h-47.45c6.97-34.19 37.27-60 73.49-60s66.52 25.81 73.49 60H327.04zM353.5 203.5v8c0 3.86-3.14 7-7 7h-8.69c4.43-9.601 7.032-19.865 7.88-30 .55-6.784.204-4.711.31-75 0-32.999-34.158-82.5-90-82.5-56.067 0-90 49.843-90 82.5.097 70.194-.23 68.646.31 75 2.635 32.256 22.736 60.751 52.19 74.31v30.69c0 4.14 3.36 7.5 7.5 7.5s7.5-3.36 7.5-7.5v-25.35c14.693 3.801 30.301 3.802 45 0v25.35c0 4.14 3.36 7.5 7.5 7.5s7.5-3.36 7.5-7.5v-30.69c14.24-6.56 26.48-16.72 35.56-29.31h17.44c12.13 0 22-9.87 22-22v-8H353.5zM256 46c36.22 0 66.52 25.81 73.49 60h-2.45c-17.83 0-33.86-9.91-41.83-25.85-1.27-2.54-3.87-4.15-6.71-4.15s-5.44 1.61-6.71 4.15c-7.97 15.94-24 25.85-41.83 25.85h-47.45C189.48 71.81 219.78 46 256 46zM320.91 218.5H263.5c-4.14 0-7.5 3.36-7.5 7.5s3.36 7.5 7.5 7.5h45.99C295.88 247.37 276.93 256 256 256c-41.307 0-75-33.586-75-75v-60h48.96c19.29 0 36.98-8.78 48.54-23.53 11.56 14.75 29.25 23.53 48.54 23.53H331v60C331 194.535 327.379 207.333 320.91 218.5zM440.84 332.78c-19.356-21.209-43.772-21.581-44.48-21.78l-4.68-.42c-4.13-.37-7.77 2.67-8.15 6.79-.37 4.13 2.67 7.77 6.79 8.15 5.34.5 5.955.492 8.18.81 25.84 3.69 45 25.56 45 51.97V496h-25.04c1.63-3.41 2.54-7.23 2.54-11.25 0-14.555-11.861-26.25-26.25-26.25-296.381.095-277.797-.24-281.25.27-12.7 1.82-22.5 12.78-22.5 25.98 0 4.02.91 7.84 2.54 11.25H68.5V378.3c0-27.985 21.336-50.016 47.75-52.29l5.43-.49c4.12-.38 7.16-4.02 6.79-8.15-.38-4.12-4.04-7.17-8.15-6.79-.102.009-5.776.521-5.43.49C80.091 314.238 53.5 343.42 53.5 378.3v125.2c0 4.14 3.36 7.5 7.5 7.5h390c4.14 0 7.5-3.36 7.5-7.5V378.3C458.5 361.41 452.23 345.25 440.84 332.78zM394.75 496h-277.5c-6.2 0-11.25-5.05-11.25-11.25s5.05-11.25 11.25-11.25h277.5c6.2 0 11.25 5.05 11.25 11.25S400.95 496 394.75 496z"></path>
        <path fill="#283954" d="M293.5 158.5h7.5c4.143 0 7.5-3.357 7.5-7.5s-3.357-7.5-7.5-7.5h-7.5c-4.143 0-7.5 3.357-7.5 7.5S289.357 158.5 293.5 158.5zM211 158.5h7.5c4.143 0 7.5-3.357 7.5-7.5s-3.357-7.5-7.5-7.5H211c-4.143 0-7.5 3.357-7.5 7.5S206.857 158.5 211 158.5z"></path>
      </g>
      <g>
        <path fill="#5596fb" d="M398.5,323.5v135.27c-3.003-0.443-4.323-0.2-15-0.27v-135c0-12.41-10.09-22.5-22.5-22.5H151
				c-12.41,0-22.5,10.09-22.5,22.5v135c-10.479,0.068-11.988-0.175-15,0.27V323.5c0-20.727,16.866-37.5,37.5-37.5h210
				c16.3,0,30.2,10.45,35.36,25C397.75,314.91,398.5,319.12,398.5,323.5z"></path>
        <path fill="#5596fb" d="M256,342.25c-20.68,0-37.5,16.82-37.5,37.5s16.82,37.5,37.5,37.5s37.5-16.82,37.5-37.5
				S276.68,342.25,256,342.25z M256,402.25c-12.41,0-22.5-10.09-22.5-22.5s10.09-22.5,22.5-22.5s22.5,10.09,22.5,22.5
				S268.41,402.25,256,402.25z"></path>
      </g>
    </g>
  </g>
</svg>
