<svg xmlns="http://www.w3.org/2000/svg" enable-background="new 0 0 64 64" viewBox="0 0 64 64" id="digital-marketing">
  <path d="M48 14.5h-4c-.6 0-1 .4-1 1s.4 1 1 1h4c.6 0 1-.4 1-1S48.6 14.5 48 14.5zM51 10.5h-7c-.6 0-1 .4-1 1s.4 1 1 1h7c.6 0 1-.4 1-1S51.6 10.5 51 10.5zM33 5.5h-3c-.6 0-1 .4-1 1s.4 1 1 1h3c.6 0 1-.4 1-1S33.6 5.5 33 5.5z"></path>
  <path d="M59,5.5H41v-1c0-1.7-1.3-3-3-3H28c-2.2,0-3,1.8-3,3v5c0,1.6,1.3,3,3,3h1.6l2.3,2.3l-20,3.8c0,0-2.6,0.5-4.6,3.1
		c-0.1,0-0.2,0-0.3,0c-1.7,0.3-5,2.3-5,7.9s3.2,7.6,5,7.9c0.1,0,0.1,0,0.2,0c0,0,0.1,0,0.1,0c0.9,1.2,2,2,2.8,2.4
		c0,0.1,0.1,0.2,0.2,0.3l14,18c0.1,0.1,0.2,0.2,0.3,0.2c0.8,0.7,1.9,1.1,3,1.1c2.5,0,4.5-2,4.5-4.5c0-1.1-0.4-2.1-1.1-3
		c0-0.1-0.1-0.1-0.1-0.2l-7.6-9.2l20.6,3.9c0.1,0,0.1,0,0.2,0c0.1,0,0.1,0,0.2,0c0.1,0,0.2,0,0.3,0c4.8,0,8.5-7.5,8.5-17
		c0-2.1-0.2-4.2-0.5-6l2-2H59c1.6,0,3-1.3,3-3v-10C62,7.3,61.2,5.5,59,5.5z M38.8,36.5c-0.5-2-0.8-4.4-0.8-7c0-2.6,0.3-5,0.8-7
		c0.1,0,0.1,0,0.2,0c2.2,0,4,3.2,4,7s-1.8,7-4,7C38.9,36.5,38.9,36.5,38.8,36.5z M30,10.5h-2c-0.5,0-1-0.4-1-1v-5c0-0.5,0.2-1,1-1
		h10c0.6,0,1,0.4,1,1v5c0,0.6-0.4,1-1,1h-3c-0.6,0-1,0.4-1,1v2.6l-3.3-3.3C30.5,10.6,30.3,10.5,30,10.5z M36,12.5h2v1.1L36,14V12.5z
		 M34.3,17.2c0.2,0.2,0.4,0.3,0.7,0.3c0.1,0,0.3,0,0.4-0.1c0.4-0.2,0.6-0.5,0.6-0.9V16l2-0.4v2.8c-1.2,2.9-2,6.8-2,11
		c0,6,1.5,11.2,3.8,14.2L20.4,40c0,0,0,0,0,0c-1.5-2.8-2.3-6.6-2.3-10.5s0.8-7.7,2.3-10.5c0,0,0,0,0,0l13.2-2.5L34.3,17.2z M4,29.5
		c0-2.8,0.9-4.3,1.8-5.1c-0.5,1.4-0.8,3-0.8,5.1c0,2,0.3,3.7,0.8,5C4.9,33.8,4,32.3,4,29.5z M7,29.5c0-8,5-9,5.2-9l5.7-1.1
		c-1.2,2.9-1.9,6.4-1.9,10.1c0,3.7,0.7,7.2,1.9,10.1l-5.8-1.1C12.1,38.5,7,37.6,7,29.5z M20.2,42.1l8.8,10.8c0,0.1,0.1,0.2,0.2,0.3
		c0.5,0.5,0.7,1.1,0.7,1.8c0,1.4-1.1,2.5-2.5,2.5c-0.7,0-1.3-0.3-1.8-0.7c0,0-0.1-0.1-0.1-0.1L13.2,40.7L20.2,42.1
		C20.2,42.1,20.2,42.1,20.2,42.1z M51,29.5c0,9-3.4,15-6.5,15c-1.9,0-3.9-2.2-5.2-6c3.2-0.3,5.7-4.1,5.7-9c0-3.5-1.3-6.5-3.2-8H48v4
		c0,0.4,0.2,0.8,0.6,0.9c0.1,0.1,0.3,0.1,0.4,0.1c0.3,0,0.5-0.1,0.7-0.3l1-1C50.9,26.5,51,28,51,29.5z M60,18.5c0,0.5-0.4,1-1,1h-5
		c-0.3,0-0.5,0.1-0.7,0.3L50,23.1v-2.6c0-0.6-0.4-1-1-1h-8c-0.6,0-1-0.4-1-1v-6.8c0.6-0.5,1-1.3,1-2.2v-2h18c0.8,0,1,0.5,1,1V18.5z"></path>
</svg>
