<svg xmlns="http://www.w3.org/2000/svg" xml:space="preserve" id="humanoid-robot" x="0" y="0" enable-background="new 0 0 512 512" version="1.1" viewBox="0 0 512 512">
  <path fill="#444" d="M213.112,98.246c-12.777,0-23.176,10.396-23.176,23.173s10.399,23.17,23.176,23.17
	s23.176-10.393,23.176-23.17S225.888,98.246,213.112,98.246z M213.112,136.755c-8.457,0-15.337-6.88-15.337-15.337
	s6.88-15.34,15.337-15.34s15.337,6.883,15.337,15.34S221.569,136.755,213.112,136.755z M314.284,98.246
	c-12.777,0-23.17,10.396-23.17,23.173s10.394,23.17,23.17,23.17s23.176-10.393,23.176-23.17S327.061,98.246,314.284,98.246z
	 M314.284,136.755c-8.457,0-15.331-6.88-15.331-15.337s6.874-15.34,15.331-15.34c8.457,0,15.337,6.883,15.337,15.34
	S322.741,136.755,314.284,136.755z M341.125,322.478l-7.796-29.094c-0.271-1.003-0.93-1.86-1.83-2.377
	c-0.906-0.524-1.971-0.668-2.972-0.388l-2.094,0.565l-7.232-49.214c28.968-10.551,51.998-30.26,56.909-60.06
	c23.116-1.519,35.221-20.833,35.221-39.974c0-10.132-3.343-19.542-9.405-26.498c-6.418-7.358-15.431-11.458-26.143-12.034
	c0.096-2.432,0.157-4.6,0.172-6.269c0-2.098,0.747-4.94,1.407-7.445c1.147-4.375,2.06-7.833,0.017-10.384
	c-1.607-2.001-2.277-4.729-2.99-7.613c-0.465-1.889-0.947-3.84-1.718-5.773c-1.978-4.967-1.972-9.043-1.96-12.98
	c0.023-9.967-1.207-17.182-17.791-26.319c-3.826-2.107-10.187-1.939-16.343-1.78c-2.872,0.074-7.221,0.194-8.145-0.144l-4.102-2.516
	c-3.343-2.036-6.503-3.961-8.952-5.838c-8.875-6.809-14.883-5.605-21.252-4.334c-3.637,0.73-7.397,1.483-12.612,0.965
	c-7.475-0.733-13.177,0.683-16.914,4.24c-5.697,5.435-5.261,13.968-4.937,20.201c0.059,1.216,0.118,2.352,0.118,3.352V42.5
	c-41.452,0.923-84.424,16.496-101.661,48.9V14.947c0-2.163-1.754-3.917-3.92-3.917c-2.166,0-3.92,1.754-3.92,3.917v88.34h-9.716
	c-7.209,0-13.371,4.746-17.337,13.362c-3.19,6.936-4.95,16.178-4.95,26.024c0,18.968,6.974,39.384,22.287,39.384h10.747
	c4.962,29.719,27.966,49.38,56.888,59.914l-7.231,49.214l-2.1-0.566c-1.012-0.28-2.077-0.136-2.972,0.388
	c-0.9,0.518-1.559,1.374-1.83,2.377l-7.181,26.801l-20.915-13.162c-0.194-0.121-0.4-0.227-0.612-0.312
	c-9.893-4.02-58.052,3.207-93.904,29.105c-32.851,23.731-48.788,57.704-46.087,98.241c0.082,1.247,0.753,2.377,1.807,3.046
	c0.635,0.406,1.365,0.612,2.101,0.612c0.483,0,0.965-0.088,1.424-0.268l11.185-4.361c-0.84,5.744-1.416,11.523-1.416,17.29v46.684
	c0,2.163,1.754,3.917,3.92,3.917h438.617c2.166,0,3.92-1.754,3.92-3.917v-46.684C486.926,387.453,436.836,323.805,341.125,322.478z
	 M333.305,323.569l-24.656,6.652l-41.029,11.068v-26.126l59.158-15.957L333.305,323.569z M267.62,243.361v-15.894v-15.541
	c14.175-1.087,24.948-7.382,31.986-18.878c1.13-1.845,0.547-4.258-1.301-5.385c-1.842-1.136-4.249-0.548-5.385,1.294
	c-5.615,9.18-13.934,14.133-25.301,15.141v-47.566V82.957c11.719,9.939,26.579,7.137,39.99,4.584
	c2.036-0.389,4.061-0.774,6.067-1.115c35.44-5.973,41.367,17.753,48.882,47.829l1.777,7.015c0.424,1.642,1.854,2.825,3.549,2.931
	c0.083,0.002,0.165,0.005,0.241,0.005c0.396,0,0.782-0.061,1.148-0.174v25.804C369.275,219.133,317.322,242.207,267.62,243.361z
	 M259.781,152.752c-15.076,0.702-28.544,5.393-38.215,12.558c-28.501-8.104-44.831-23.73-44.831-43.077
	c0-25.741,27.731-46.687,61.818-46.687h21.228V152.752z M259.781,160.547v62.906c-25.536-1.274-45.704-14.895-45.704-31.453
	S234.245,161.821,259.781,160.547z M403.498,141.935c0,14.994-9.097,30.153-26.522,32.076c0.075-1.376,0.139-2.759,0.139-4.175
	v-45.925c0-4.299-0.465-8.479-1.185-12.548c8.277,0.587,15.232,3.651,20.089,9.223C400.844,126.115,403.498,133.698,403.498,141.935
	z M267.598,40.165c-0.016-0.981-0.054-2.01-0.113-3.155c-0.253-4.978-0.577-11.173,2.524-14.127c2.001-1.91,5.626-2.61,10.729-2.113
	c6.374,0.63,11.111-0.318,14.93-1.08c5.744-1.141,8.899-1.774,14.937,2.866c2.784,2.133,6.12,4.167,9.652,6.314l4.02,2.469
	c2.436,1.519,6.156,1.498,12.506,1.33c4.143-0.103,10.387-0.271,12.359,0.812c13.76,7.583,13.747,12.044,13.736,19.439
	c-0.012,4.243-0.024,9.525,2.518,15.899c0.606,1.518,0.989,3.131,1.383,4.743c0.789,3.184,1.666,6.765,3.961,9.948
	c-0.112,0.968-0.612,2.863-0.959,4.182c-0.777,2.966-1.666,6.327-1.666,9.404c-0.053,6.2-0.518,14.963-1.159,22.905
	c-7.08-25.392-17.938-47.541-54.585-41.299c-2.06,0.347-4.143,0.744-6.227,1.141c-15.579,2.961-29.056,5.493-38.525-8.722V40.165
	H267.598z M140.565,174.224c-9.387,0-14.454-16.258-14.454-31.551c0-15.295,5.067-31.553,14.454-31.553h10.845
	c-0.716,4.079-1.129,8.327-1.129,12.792v45.925c0,1.487,0.063,2.942,0.145,4.387H140.565z M158.121,169.836v-45.925
	c0-49.297,51.953-72.372,101.661-73.525v17.327h-21.228c-38.407,0-69.657,24.459-69.657,54.52c0,21.979,16.627,39.676,45.88,49.214
	c-5.378,5.992-8.538,13.016-8.538,20.553c0,20.81,23.686,37.857,53.543,39.248v12.113
	C210.073,242.208,158.121,219.133,158.121,169.836z M215.759,244.46c15.261,4.593,31.779,6.845,47.941,6.845
	c16.162,0,32.679-2.252,47.941-6.846l7.168,48.78l-55.109,14.868l-55.109-14.867L215.759,244.46z M200.617,299.205l59.164,15.96
	v26.123l-29.972-8.084l-35.719-9.636L200.617,299.205z M76.045,342.169c29.974-21.658,67.327-28.77,81.392-28.77
	c2.148,0,3.755,0.168,4.702,0.474l23.058,14.51l-2.702,33.166c-0.488,6.014-1.971,9.075-4.956,10.237l-144.605,56.38
	C32.036,392.405,46.526,363.494,76.045,342.169z M48.309,450.377c0-6.87,0.727-13.773,2-20.574l126.688-49.394h28.834
	c1.815,8.669,9.513,15.201,18.711,15.201c10.54,0,19.121-8.574,19.121-19.118s-8.58-19.118-19.121-19.118
	c-9.198,0-16.896,6.532-18.711,15.202h-18.21c1.796-3.353,2.425-7.208,2.681-10.393l2.513-30.844l66.968,18.064v80.278
	c-8.229-12.152-22.144-20.155-37.895-20.155h-55.156c-23.888,0-43.321,19.433-43.321,43.321v40.299H48.309V450.377z
	 M224.541,365.207c6.22,0,11.281,5.061,11.281,11.285c0,6.223-5.061,11.284-11.281,11.284c-4.873,0-8.996-3.124-10.57-7.461v-7.647
	C215.545,368.33,219.668,365.207,224.541,365.207z M259.781,493.145H131.249v-40.299c0-19.568,15.913-35.488,35.482-35.488h55.156
	c20.898,0,37.895,16.999,37.895,37.895V493.145z M479.087,493.145h-93.992v-28.932c0-2.163-1.754-3.917-3.92-3.917
	s-3.92,1.754-3.92,3.917v28.932H267.62v-37.892V349.402l70.999-19.153c92.215,0.23,140.468,60.547,140.468,120.129V493.145z
	 M238.118,455.253c0,2.163-1.754,3.917-3.92,3.917h-80.874c-2.166,0-3.92-1.754-3.92-3.917c0-2.163,1.754-3.917,3.92-3.917h80.874
	C236.364,451.336,238.118,453.09,238.118,455.253z"></path>
</svg>
