<svg xmlns="http://www.w3.org/2000/svg" viewBox="0 0 35 35" id="account">
  <path d="M17.5 21.13A10.14 10.14 0 1 1 27.63 11 10.14 10.14 0 0 1 17.5 21.13zm0-17.77A7.64 7.64 0 1 0 25.13 11 7.64 7.64 0 0 0 17.5 3.36zM29.21 34.14a1.27 1.27 0 0 1-1.16-.78A11.6 11.6 0 0 0 17.5 25.79 11.6 11.6 0 0 0 7 33.36a1.27 1.27 0 0 1-1.63.69 1.25 1.25 0 0 1-.69-1.63A14.1 14.1 0 0 1 17.5 23.29a14.1 14.1 0 0 1 12.87 9.13 1.25 1.25 0 0 1-.69 1.63A1.27 1.27 0 0 1 29.21 34.14z"></path>
  <path d="M17.5,16.33a4.42,4.42,0,0,1-4.2-3,1.25,1.25,0,0,1,2.37-.79,1.93,1.93,0,0,0,3.66,0,1.25,1.25,0,1,1,2.37.79A4.42,4.42,0,0,1,17.5,16.33Z"></path>
</svg>
