<svg xmlns="http://www.w3.org/2000/svg" viewBox="0 0 48 48" id="public-facility">
  <g>
    <path fill="#bfbfbf" d="M47,29v4a2,2,0,0,1-2,2H23a2,2,0,0,1-2-2V29Z"></path>
    <rect width="8" height="12" x="30" y="35" fill="#bfbfbf"></rect>
    <path fill="#424242" d="M10,14A5,5,0,1,0,5,9,5,5,0,0,0,10,14Zm0-8A3,3,0,1,1,7,9,3,3,0,0,1,10,6Z"></path>
    <path fill="#424242" d="M45,0H23a3,3,0,0,0-3,3v9.68L14.79,15c-3.1,0-2.94,0-3.24.11L10,15.88l-1.55-.77C8.15,15,8.3,15,5,15a5,5,0,0,0-5,5v8a3,3,0,0,0,3,3H4c0,1.32.12-.95-.85,13.74a3.06,3.06,0,0,0,6.08.61L10,39.57l.77,5.78a3.06,3.06,0,0,0,6.08-.61c-1-15.29-.85-10.3-.85-22.17l4-2.4V33a3,3,0,0,0,3,3h6V46H28a1,1,0,0,0,0,2H40a1,1,0,0,0,0-2H39V36h6a3,3,0,0,0,3-3V3A3,3,0,0,0,45,0ZM14.49,21.14A1,1,0,0,0,14,22c0,12.68-.17,7.51.86,22.87a1,1,0,0,1-.29.8,1.06,1.06,0,0,1-1.82-.59C10.78,30.31,11,31.91,11,31.81a1,1,0,0,0-.41-.63,1.68,1.68,0,0,0-.43-.17A.57.57,0,0,0,10,31a.57.57,0,0,0-.13,0,1.68,1.68,0,0,0-.43.17,1,1,0,0,0-.41.63s0,0,0,.06L7.25,45.08a1.06,1.06,0,0,1-1.82.59,1,1,0,0,1-.29-.8C6.17,29.42,6,34.59,6,22a1,1,0,0,0-2,0v7H3a1,1,0,0,1-1-1V20a3,3,0,0,1,3-3H7.76c2.09,1,1.8.9,2.06,1,.45.08.58,0,2.42-1H15c.3,0-.2.18,7.08-3.05a1.14,1.14,0,0,1,1.05,2ZM37,46H31V36h6Zm9-13a1,1,0,0,1-1,1H23a1,1,0,0,1-1-1V30H46Zm0-5H22V19l2.16-1.3A3.13,3.13,0,0,0,22,11.9V3a1,1,0,0,1,1-1H45a1,1,0,0,1,1,1Z"></path>
    <rect width="12" height="6" x="24" y="20" fill="#bfbfbf" rx="1"></rect>
    <rect width="12" height="6" x="32" y="4" fill="#bfbfbf" rx="1"></rect>
    <rect width="6" height="6" x="24" y="4" fill="#bfbfbf" rx="1"></rect>
    <rect width="6" height="6" x="38" y="20" fill="#bfbfbf" rx="1"></rect>
    <rect width="8" height="6" x="36" y="12" fill="#bfbfbf" rx="1"></rect>
    <rect width="6" height="6" x="28" y="12" fill="#fc6459" rx="1"></rect>
  </g>
</svg>
