<svg xmlns="http://www.w3.org/2000/svg" viewBox="0 0 64 64" id="quality">
  <path d="M56.89,26.32l2.8-6.83c.11-.26,.1-.56-.02-.81-.12-.25-.35-.45-.62-.53l-7.09-2.06-.44-7.37c-.02-.28-.15-.54-.37-.72-.22-.18-.51-.25-.79-.21l-7.28,1.2-3.59-6.45c-.14-.25-.37-.42-.65-.49-.27-.07-.57,0-.8,.16l-6.03,4.26-6.03-4.26c-.23-.16-.52-.22-.8-.16-.28,.06-.51,.24-.65,.49l-3.59,6.45-7.28-1.21c-.27-.05-.56,.03-.79,.21-.22,.18-.36,.44-.37,.72l-.44,7.37-7.09,2.06c-.27,.08-.5,.27-.62,.53-.12,.26-.13,.55-.02,.81l2.8,6.83L1.63,31.26c-.21,.19-.33,.46-.33,.74s.12,.55,.33,.74l5.48,4.94-2.8,6.83c-.11,.26-.1,.56,.02,.81,.12,.25,.35,.45,.62,.53l7.09,2.06,.44,7.37c.02,.28,.15,.54,.37,.72s.51,.25,.79,.21l7.28-1.2,3.59,6.45c.14,.25,.37,.42,.65,.49,.27,.07,.57,0,.8-.16l6.03-4.26,6.03,4.26c.17,.12,.37,.18,.58,.18,.07,0,.15,0,.22-.03,.28-.06,.51-.24,.65-.49l3.59-6.45,7.28,1.21c.27,.05,.56-.03,.79-.21,.22-.18,.36-.44,.37-.72l.44-7.37,7.09-2.06c.27-.08,.5-.27,.62-.53,.12-.26,.13-.55,.02-.81l-2.8-6.83,5.48-4.94c.21-.19,.33-.46,.33-.74s-.12-.55-.33-.74l-5.48-4.94Zm-1.86,10.35c-.31,.28-.42,.73-.25,1.12l2.65,6.45-6.7,1.95c-.41,.12-.69,.48-.72,.9l-.42,6.96-6.88-1.14c-.42-.07-.83,.13-1.04,.5l-3.39,6.09-5.7-4.02c-.17-.12-.37-.18-.58-.18s-.4,.06-.58,.18l-5.7,4.02-3.39-6.09c-.2-.37-.62-.57-1.04-.5l-6.88,1.14-.42-6.96c-.03-.42-.31-.78-.72-.9l-6.69-1.95,2.64-6.45c.16-.39,.06-.84-.25-1.12l-5.18-4.67,5.18-4.67c.31-.28,.42-.73,.25-1.12l-2.65-6.45,6.7-1.95c.41-.12,.69-.48,.72-.9l.42-6.96,6.88,1.14c.42,.08,.83-.13,1.04-.5l3.39-6.09,5.7,4.02c.35,.24,.81,.24,1.15,0l5.7-4.02,3.39,6.09c.21,.37,.62,.57,1.04,.5l6.88-1.14,.42,6.96c.03,.42,.31,.78,.72,.9l6.69,1.95-2.64,6.45c-.16,.39-.06,.84,.25,1.12l5.18,4.67-5.18,4.67Z"></path>
  <path d="M32,12c-11.03,0-20,8.97-20,20,0,3.11,.73,6.04,2,8.66v.34h.16c3.3,6.51,10.05,11,17.84,11,11.03,0,20-8.97,20-20s-8.97-20-20-20ZM14,32c0-1.02,.11-2.02,.27-3h7.73v10h-6.58c-.91-2.15-1.42-4.52-1.42-7Zm18,18c-6.64,0-12.45-3.63-15.56-9h6.56c.43,0,.79-.27,.93-.65l.49,.31c1.36,.88,2.93,1.34,4.55,1.34h10.83c2.32,0,4.2-1.88,4.2-4.19v-7.78c0-2.01-1.64-3.65-3.66-3.65h-5.15c-.36,0-.66-.29-.66-.65v-4.71c0-1.67-1.36-3.02-3.03-3.02h-1.2c-1.67,0-3.03,1.36-3.03,3.02v4.12c0,.86-.59,1.62-1.43,1.84l-1.98,.52c-.17-.3-.48-.52-.86-.52H14.72c2.17-7.5,9.09-13,17.28-13,9.92,0,18,8.08,18,18s-8.08,18-18,18Zm3.19-21.62h5.15c.91,0,1.64,.72,1.66,1.62h-5v2h5v1h-5v2h5v1h-5v2h4.98c-.1,1.12-1.03,2-2.18,2h-10.83c-1.23,0-2.43-.35-3.46-1.02l-1.5-.97v-8.46l2.35-.62c1.71-.46,2.91-2.01,2.91-3.78v-4.12c0-.56,.46-1.02,1.03-1.02h1.2c.57,0,1.03,.46,1.03,1.02v4.71c0,1.46,1.19,2.65,2.66,2.65Z"></path>
</svg>
