<svg xmlns="http://www.w3.org/2000/svg" viewBox="0 0 32 32" id="resume">
  <path d="M3.5,2V29A1.50164,1.50164,0,0,0,5,30.5h7a.5.5,0,0,0,0-1H5a.50034.50034,0,0,1-.5-.5V2.5h19V29a1.48753,1.48753,0,0,0,.08594.5H16a.5.5,0,0,0,0,1h9A1.50164,1.50164,0,0,0,26.5,29V24.5H28a.49971.49971,0,0,0,.5-.5V5A1.50164,1.50164,0,0,0,27,3.5H24.5V2a.49971.49971,0,0,0-.5-.5H4A.49971.49971,0,0,0,3.5,2Zm24,21.5h-1V5a.5.5,0,0,1,1,0Zm-1.9079-19A1.48254,1.48254,0,0,0,25.5,5V29a.5.5,0,0,1-1,0V4.5Z"></path>
  <path d="M9 22.5H19a1.5 1.5 0 000-3H9a1.5 1.5 0 000 3zm0-2H19a.5.5 0 010 1H9a.5.5 0 010-1zM9 23.5a.5.5 0 000 1H19a.5.5 0 000-1zM19.5 26a.49971.49971 0 00-.5-.5H9a.5.5 0 000 1H19A.49971.49971 0 0019.5 26zM14 17.5A6.5 6.5 0 107.5 11 6.50753 6.50753 0 0014 17.5zm0-1a5.48106 5.48106 0 01-3.93134-1.66125 4.474 4.474 0 017.86292-.00043A5.48108 5.48108 0 0114 16.5zM12.5 10A1.5 1.5 0 1114 11.5 1.50164 1.50164 0 0112.5 10zM14 5.5a5.49266 5.49266 0 014.605 8.49774 5.51267 5.51267 0 00-2.87012-2.20447 2.5 2.5 0 10-3.46984.00006 5.515 5.515 0 00-2.87024 2.20435A5.49276 5.49276 0 0114 5.5z"></path>
  <circle cx="14" cy="30" r=".5"></circle>
</svg>
